<?xml version="1.0" encoding="UTF-8" standalone="no"?>
<!-- Created with Inkscape (http://www.inkscape.org/) -->

<svg
   width="793.70081"
   height="559.37006"
   viewBox="0 0 210 147.99999"
   version="1.1"
   id="svg1"
   inkscape:version="1.3.2 (091e20ef0f, 2023-11-25)"
   sodipodi:docname="8_rotation_of_a_vector.svg"
   xml:space="preserve"
   inkscape:export-filename="8_rotation_of_a_vector.webp"
   inkscape:export-xdpi="96"
   inkscape:export-ydpi="96"
   xmlns:inkscape="http://www.inkscape.org/namespaces/inkscape"
   xmlns:sodipodi="http://sodipodi.sourceforge.net/DTD/sodipodi-0.dtd"
   xmlns="http://www.w3.org/2000/svg"
   xmlns:svg="http://www.w3.org/2000/svg"><sodipodi:namedview
     id="namedview1"
     pagecolor="#ffffff"
     bordercolor="#cccccc"
     borderopacity="1"
     inkscape:showpageshadow="0"
     inkscape:pageopacity="1"
     inkscape:pagecheckerboard="0"
     inkscape:deskcolor="#d1d1d1"
     inkscape:document-units="mm"
     inkscape:zoom="0.7429714"
     inkscape:cx="273.22721"
     inkscape:cy="306.2029"
     inkscape:window-width="1920"
     inkscape:window-height="1008"
     inkscape:window-x="0"
     inkscape:window-y="35"
     inkscape:window-maximized="1"
     inkscape:current-layer="layer3"
     inkscape:export-bgcolor="#ffffffff" /><defs
     id="defs1"><rect
       x="290.4586"
       y="413.27955"
       width="41.889762"
       height="48.102521"
       id="rect27" /><rect
       x="214.84135"
       y="332.41881"
       width="122.05143"
       height="38.026524"
       id="rect8" /><marker
       style="overflow:visible"
       id="ArrowWide"
       refX="0"
       refY="0"
       orient="auto-start-reverse"
       inkscape:stockid="Wide arrow"
       markerWidth="1"
       markerHeight="1"
       viewBox="0 0 1 1"
       inkscape:isstock="true"
       inkscape:collect="always"
       preserveAspectRatio="xMidYMid"><path
         style="fill:none;stroke:context-stroke;stroke-width:1;stroke-linecap:butt"
         d="M 3,-3 0,0 3,3"
         transform="rotate(180,0.125,0)"
         sodipodi:nodetypes="ccc"
         id="path2" /></marker><rect
       x="214.84135"
       y="332.41881"
       width="122.05143"
       height="38.026524"
       id="rect9" /><rect
       x="214.84135"
       y="332.41881"
       width="122.05143"
       height="38.026524"
       id="rect10" /><rect
       x="214.84135"
       y="332.41881"
       width="122.05143"
       height="38.026524"
       id="rect11" /><rect
       x="214.84135"
       y="332.41881"
       width="122.05143"
       height="38.026524"
       id="rect12" /><rect
       x="214.84135"
       y="332.41881"
       width="122.05143"
       height="38.026524"
       id="rect13" /><rect
       x="290.4586"
       y="413.27955"
       width="41.889762"
       height="48.102521"
       id="rect28" /><rect
       x="290.4586"
       y="413.27955"
       width="41.889762"
       height="48.102521"
       id="rect29" /><rect
       x="290.4586"
       y="413.27955"
       width="41.889762"
       height="48.102521"
       id="rect30" /><rect
       x="290.4586"
       y="413.27955"
       width="41.889762"
       height="48.102521"
       id="rect31" /><rect
       x="290.4586"
       y="413.27955"
       width="41.889762"
       height="48.102521"
       id="rect32" /><rect
       x="290.4586"
       y="413.27955"
       width="41.889762"
       height="48.102521"
       id="rect33" /><rect
       x="290.4586"
       y="413.27955"
       width="41.889762"
       height="48.102521"
       id="rect34" /><rect
       x="290.4586"
       y="413.27955"
       width="41.889762"
       height="48.102521"
       id="rect35" /><rect
       x="290.4586"
       y="413.27955"
       width="41.889762"
       height="48.102521"
       id="rect36" /><rect
       x="290.4586"
       y="413.27955"
       width="41.889762"
       height="48.102521"
       id="rect37" /><rect
       x="290.4586"
       y="413.27955"
       width="41.889762"
       height="48.102521"
       id="rect38" /><rect
       x="290.4586"
       y="413.27955"
       width="41.889762"
       height="48.102521"
       id="rect39" /><rect
       x="214.84135"
       y="332.41881"
       width="122.05143"
       height="38.026524"
       id="rect40" /><rect
       x="214.84135"
       y="332.41881"
       width="122.05143"
       height="38.026524"
       id="rect1" /><rect
       x="214.84135"
       y="332.41881"
       width="297.54367"
       height="53.708419"
       id="rect2" /><rect
       x="214.84135"
       y="332.41881"
       width="122.05143"
       height="38.026524"
       id="rect14" /><rect
       x="214.84135"
       y="332.41881"
       width="297.54367"
       height="53.708419"
       id="rect3" /></defs><g
     inkscape:groupmode="layer"
     id="layer3"
     inkscape:label="Layer 1"
     style="display:inline"><path
       style="display:inline;fill:none;fill-rule:evenodd;stroke:#00b21e;stroke-width:1.165;stroke-linecap:butt;stroke-linejoin:miter;stroke-dasharray:none;stroke-opacity:1;marker-end:url(#ArrowWide)"
       d="m 89.669989,81.286315 -0.022,-58.921926"
       id="path4"
       inkscape:connector-type="polyline"
       inkscape:connector-curvature="0"
       sodipodi:nodetypes="cc" /><path
       style="display:inline;fill:none;fill-rule:evenodd;stroke:#000000;stroke-width:0.565;stroke-linecap:butt;stroke-linejoin:miter;stroke-dasharray:none;stroke-opacity:1"
       d="M 89.434999,81.030542 62.786061,117.92462"
       id="path6"
       inkscape:connector-type="polyline"
       inkscape:connector-curvature="0"
       sodipodi:nodetypes="cc" /><path
       style="display:inline;fill:none;fill-rule:evenodd;stroke:#cd0000;stroke-width:1.165;stroke-linecap:butt;stroke-linejoin:miter;stroke-dasharray:none;stroke-opacity:1;marker-end:url(#ArrowWide)"
       d="M 89.093769,81.151063 143.59122,45.15902"
       id="path5"
       inkscape:connector-type="polyline"
       inkscape:connector-curvature="0"
       sodipodi:nodetypes="cc" /><text
       xml:space="preserve"
       transform="matrix(0.26458333,0,0,0.26458333,41.838826,-33.425813)"
       id="text11"
       style="font-size:29.3333px;line-height:normal;font-family:sans-serif;-inkscape-font-specification:sans-serif;text-align:center;text-decoration-color:#000000;white-space:pre;shape-inside:url(#rect11);display:inline;fill:#cc0000;fill-opacity:1;stroke:#0000cc;stroke-width:4.40315;stroke-dasharray:0, 48.4346;stroke-dashoffset:0;stroke-opacity:1"><tspan
         x="267.18751"
         y="358.37106"
         id="tspan1">v</tspan></text><text
       xml:space="preserve"
       transform="matrix(0.26458333,0,0,0.26458333,21.826085,-44.714764)"
       id="text12"
       style="font-size:29.3333px;line-height:normal;font-family:sans-serif;-inkscape-font-specification:sans-serif;text-align:center;text-decoration-color:#000000;white-space:pre;shape-inside:url(#rect12);display:inline;fill:#00b21e;fill-opacity:1;stroke:#00b21e;stroke-width:4.40315;stroke-dasharray:0, 48.4346;stroke-dashoffset:0;stroke-opacity:1"><tspan
         x="267.37371"
         y="358.37106"
         id="tspan2">k</tspan></text><path
       style="display:inline;fill:none;fill-rule:evenodd;stroke:#00b21e;stroke-width:0.565;stroke-linecap:butt;stroke-linejoin:miter;stroke-dasharray:none;stroke-opacity:1"
       d="m 92.964453,42.744285 4.40148,0.01675"
       id="path14"
       inkscape:connector-type="polyline"
       inkscape:connector-curvature="0" /><path
       style="display:inline;fill:none;fill-rule:evenodd;stroke:#cc0000;stroke-width:0.565;stroke-linecap:butt;stroke-linejoin:miter;stroke-dasharray:none;stroke-opacity:1"
       d="m 112.45657,55.843076 4.40149,0.01675"
       id="path15"
       inkscape:connector-type="polyline"
       inkscape:connector-curvature="0" /><g
       inkscape:groupmode="layer"
       id="layer4"
       inkscape:label="Layer 2"
       style="display:inline"><g
         inkscape:groupmode="layer"
         id="g8"
         inkscape:label="Layer 5"
         style="display:inline"
         transform="translate(-1.0606618,-0.42880291)" /><g
         inkscape:groupmode="layer"
         id="layer5"
         inkscape:label="Layer 4"
         style="display:inline"
         transform="translate(-1.2039272,-1.3312824)"><text
           xml:space="preserve"
           transform="matrix(0.26458333,0,0,0.26458333,8.0249496,13.154262)"
           id="text2"
           style="font-size:18.6667px;line-height:normal;font-family:sans-serif;-inkscape-font-specification:sans-serif;text-align:center;text-decoration-color:#000000;white-space:pre;shape-inside:url(#rect2);display:inline;fill:#000000;fill-opacity:1;stroke:#00b21e;stroke-width:4.40315;stroke-dasharray:0, 48.4346;stroke-dashoffset:0;stroke-opacity:1"><tspan
             x="271.35074"
             y="348.93362"
             id="tspan3">rotation axis (0,0,1)</tspan></text><text
           xml:space="preserve"
           transform="matrix(0.26458333,0,0,0.26458333,3.5500996,-25.38194)"
           id="text1"
           style="font-size:16px;line-height:normal;font-family:sans-serif;-inkscape-font-specification:sans-serif;text-align:center;text-decoration-color:#000000;white-space:pre;shape-inside:url(#rect3);display:inline;fill:#000000;fill-opacity:1;stroke:#00b21e;stroke-width:4.40315;stroke-dasharray:0, 48.4346;stroke-dashoffset:0;stroke-opacity:1"><tspan
             x="341.41797"
             y="346.57422"
             id="tspan4">angle</tspan></text><path
           style="fill:#000000;fill-opacity:0;stroke:#000000;stroke-width:0.564999;stroke-dasharray:none;stroke-opacity:1"
           d="m 91.370817,68.349502 c 0.59331,-0.188629 1.25903,-0.121941 1.88078,-0.121941 0.26115,0 0.52642,-0.01185 0.78692,0 0.33831,0.01537 0.64522,0.09127 0.97577,0.157382 0.15569,0.03114 0.31645,0.03182 0.47214,0.06295 0.20701,0.0414 0.42934,0.122126 0.62953,0.188857 0.2947,0.09823 0.56789,0.24955 0.84986,0.377717 0.20693,0.09406 0.14031,0.03868 0.37772,0.157382 0.25283,0.126418 0.48961,0.28444 0.72396,0.440671 0.0509,0.03394 0.10961,0.05621 0.15738,0.09443 0.0579,0.04634 0.10193,0.10809 0.15738,0.157382 0.12826,0.114009 0.28048,0.200348 0.4092,0.314764 0.14087,0.125225 0.25343,0.26938 0.37771,0.409192 0.15106,0.169936 0.11808,0.09447 0.28329,0.283286 0.086,0.09831 0.14065,0.212313 0.22034,0.314767 0.11838,0.152202 0.26044,0.289891 0.377713,0.440669 0.0376,0.04829 0.0605,0.106479 0.0944,0.157382 0.0894,0.134176 0.19345,0.242959 0.28329,0.377717 0.28815,0.432223 -0.12155,-0.204026 0.22033,0.251812 0.0282,0.03754 0.0369,0.08686 0.063,0.125904 0.0373,0.0559 0.0886,0.101484 0.1259,0.157382 0.0844,0.126545 0.13204,0.285576 0.22034,0.409194 0.0259,0.03622 0.0686,0.05821 0.0944,0.09443 0.10898,0.15258 0.026,0.08344 0.0944,0.219922 0.0491,0.09789 0.13868,0.152262 0.18764,0.250195 0.0297,0.05935 0.0233,0.135692 0.063,0.18886 0.014,0.01871 0.0486,0.01281 0.0626,0.03148 0.0452,0.06036 0.16951,0.38431 0.16951,0.471794"
           id="path22" /></g><g
         inkscape:groupmode="layer"
         id="g7"
         inkscape:label="Layer 3"
         style="display:inline" /></g></g></svg>
