<?xml version="1.0" encoding="UTF-8" standalone="no"?>
<!-- Created with Inkscape (http://www.inkscape.org/) -->

<svg
   width="793.70081"
   height="559.37006"
   viewBox="0 0 210 147.99999"
   version="1.1"
   id="svg1"
   inkscape:version="1.3.2 (091e20ef0f, 2023-11-25)"
   sodipodi:docname="6_detailed_version_of_matrix_multiplication.svg"
   xml:space="preserve"
   inkscape:export-filename="6_detailed_version_of_matrix_multiplication.webp"
   inkscape:export-xdpi="96"
   inkscape:export-ydpi="96"
   xmlns:inkscape="http://www.inkscape.org/namespaces/inkscape"
   xmlns:sodipodi="http://sodipodi.sourceforge.net/DTD/sodipodi-0.dtd"
   xmlns="http://www.w3.org/2000/svg"
   xmlns:svg="http://www.w3.org/2000/svg"><sodipodi:namedview
     id="namedview1"
     pagecolor="#ffffff"
     bordercolor="#cccccc"
     borderopacity="1"
     inkscape:showpageshadow="0"
     inkscape:pageopacity="1"
     inkscape:pagecheckerboard="0"
     inkscape:deskcolor="#d1d1d1"
     inkscape:document-units="mm"
     inkscape:zoom="1.0507202"
     inkscape:cx="371.17398"
     inkscape:cy="335.48418"
     inkscape:window-width="1920"
     inkscape:window-height="1008"
     inkscape:window-x="0"
     inkscape:window-y="35"
     inkscape:window-maximized="1"
     inkscape:current-layer="layer5"
     inkscape:export-bgcolor="#ffffffff" /><defs
     id="defs1"><rect
       x="290.4586"
       y="413.27955"
       width="41.889762"
       height="48.102521"
       id="rect27" /><rect
       x="214.84135"
       y="332.41881"
       width="122.05143"
       height="38.026524"
       id="rect8" /><rect
       x="214.84135"
       y="332.41881"
       width="122.05143"
       height="38.026524"
       id="rect9" /><rect
       x="214.84135"
       y="332.41881"
       width="122.05143"
       height="38.026524"
       id="rect10" /><rect
       x="214.84135"
       y="332.41881"
       width="122.05143"
       height="38.026524"
       id="rect11" /><rect
       x="214.84135"
       y="332.41881"
       width="122.05143"
       height="38.026524"
       id="rect12" /><rect
       x="214.84135"
       y="332.41881"
       width="122.05143"
       height="38.026524"
       id="rect13" /><rect
       x="290.4586"
       y="413.27955"
       width="41.889762"
       height="48.102521"
       id="rect28" /><rect
       x="290.4586"
       y="413.27955"
       width="41.889762"
       height="48.102521"
       id="rect29" /><rect
       x="290.4586"
       y="413.27955"
       width="41.889762"
       height="48.102521"
       id="rect30" /><rect
       x="290.4586"
       y="413.27955"
       width="41.889762"
       height="48.102521"
       id="rect31" /><rect
       x="290.4586"
       y="413.27955"
       width="41.889762"
       height="48.102521"
       id="rect32" /><rect
       x="290.4586"
       y="413.27955"
       width="41.889762"
       height="48.102521"
       id="rect33" /><rect
       x="290.4586"
       y="413.27955"
       width="41.889762"
       height="48.102521"
       id="rect34" /><rect
       x="290.4586"
       y="413.27955"
       width="41.889762"
       height="48.102521"
       id="rect35" /><rect
       x="290.4586"
       y="413.27955"
       width="41.889762"
       height="48.102521"
       id="rect36" /><rect
       x="290.4586"
       y="413.27955"
       width="41.889762"
       height="48.102521"
       id="rect37" /><rect
       x="290.4586"
       y="413.27955"
       width="41.889762"
       height="48.102521"
       id="rect38" /><rect
       x="290.4586"
       y="413.27955"
       width="41.889762"
       height="48.102521"
       id="rect39" /><rect
       x="214.84135"
       y="332.41881"
       width="122.05143"
       height="38.026524"
       id="rect40" /><rect
       x="214.84135"
       y="332.41881"
       width="122.05143"
       height="38.026524"
       id="rect1" /><rect
       x="214.84135"
       y="332.41881"
       width="71.229895"
       height="33.435259"
       id="rect2" /><rect
       x="214.84135"
       y="332.41881"
       width="122.05143"
       height="38.026524"
       id="rect14" /><rect
       x="214.84135"
       y="332.41881"
       width="154.22467"
       height="59.274354"
       id="rect3" /><rect
       x="214.84135"
       y="332.41881"
       width="68.874488"
       height="59.011289"
       id="rect4" /><rect
       x="214.84135"
       y="332.41881"
       width="68.874488"
       height="59.011289"
       id="rect5" /><rect
       x="214.84135"
       y="332.41881"
       width="58.541528"
       height="30.815"
       id="rect6" /><rect
       x="214.84135"
       y="332.41881"
       width="98.121292"
       height="63.490235"
       id="rect7" /><rect
       x="214.84135"
       y="332.41881"
       width="58.541528"
       height="30.815"
       id="rect15" /><rect
       x="214.84135"
       y="332.41881"
       width="71.229895"
       height="33.435259"
       id="rect16" /><rect
       x="214.84135"
       y="332.41881"
       width="68.874488"
       height="59.011289"
       id="rect17" /><rect
       x="214.84135"
       y="332.41881"
       width="71.229895"
       height="33.435259"
       id="rect18" /><rect
       x="214.84135"
       y="332.41881"
       width="68.874488"
       height="59.011289"
       id="rect19" /><rect
       x="214.84135"
       y="332.41881"
       width="68.874488"
       height="59.011289"
       id="rect20" /><rect
       x="214.84135"
       y="332.41881"
       width="68.874488"
       height="59.011289"
       id="rect21" /><rect
       x="214.84135"
       y="332.41881"
       width="154.22467"
       height="59.274354"
       id="rect22" /><rect
       x="214.84135"
       y="332.41881"
       width="154.22467"
       height="59.274354"
       id="rect23" /><rect
       x="214.84135"
       y="332.41881"
       width="71.229895"
       height="33.435259"
       id="rect24" /><rect
       x="214.84135"
       y="332.41881"
       width="71.229895"
       height="33.435259"
       id="rect25" /><rect
       x="214.84135"
       y="332.41881"
       width="154.22467"
       height="59.274354"
       id="rect26" /><rect
       x="214.84135"
       y="332.41881"
       width="154.22467"
       height="59.274354"
       id="rect41" /><rect
       x="214.84135"
       y="332.41881"
       width="68.874488"
       height="59.011289"
       id="rect42" /><rect
       x="214.84135"
       y="332.41881"
       width="68.874488"
       height="59.011289"
       id="rect43" /><rect
       x="214.84135"
       y="332.41881"
       width="58.541528"
       height="30.815"
       id="rect44" /><rect
       x="214.84135"
       y="332.41881"
       width="58.541528"
       height="30.815"
       id="rect45" /><rect
       x="214.84135"
       y="332.41881"
       width="58.541528"
       height="30.815"
       id="rect46" /><rect
       x="214.84135"
       y="332.41881"
       width="58.541528"
       height="30.815"
       id="rect47" /></defs><g
     inkscape:groupmode="layer"
     id="layer5"
     inkscape:label="Layer 1"
     style="display:inline"
     transform="translate(-1.2039272,-1.3312824)"><text
       xml:space="preserve"
       transform="matrix(0.26458333,0,0,0.26458333,7.1410807,-18.487823)"
       id="text6"
       style="font-size:24px;line-height:normal;font-family:sans-serif;-inkscape-font-specification:sans-serif;text-align:center;text-decoration-color:#000000;white-space:pre;shape-inside:url(#rect6);display:inline;fill:#0000ff;fill-opacity:1;stroke:#cc0000;stroke-width:4.40315;stroke-dasharray:0, 48.4346;stroke-dashoffset:0;stroke-opacity:1"><tspan
         x="234.05762"
         y="353.65234"
         id="tspan3"><tspan
           style="fill:#000000"
           id="tspan1">=</tspan></tspan></text><text
       xml:space="preserve"
       transform="matrix(0.26458333,0,0,0.26458333,98.09879,-21.772723)"
       id="text7"
       style="font-size:24px;line-height:normal;font-family:sans-serif;-inkscape-font-specification:sans-serif;text-align:center;text-decoration-color:#000000;white-space:pre;shape-inside:url(#rect7);display:inline;fill:#0000ff;fill-opacity:1;stroke:#cc0000;stroke-width:4.40315;stroke-dasharray:0, 48.4346;stroke-dashoffset:0;stroke-opacity:1"><tspan
         x="225.73438"
         y="353.65234"
         id="tspan5"><tspan
           style="fill:#000000"
           id="tspan4">19  22
</tspan></tspan><tspan
         x="225.73438"
         y="383.65234"
         id="tspan7"><tspan
           style="fill:#000000"
           id="tspan6">43  50</tspan></tspan></text><text
       xml:space="preserve"
       transform="matrix(0.26458333,0,0,0.26458333,85.962792,-17.960621)"
       id="text8"
       style="font-size:24px;line-height:normal;font-family:sans-serif;-inkscape-font-specification:sans-serif;text-align:center;text-decoration-color:#000000;white-space:pre;shape-inside:url(#rect15);display:inline;fill:#0000ff;fill-opacity:1;stroke:#cc0000;stroke-width:4.40315;stroke-dasharray:0, 48.4346;stroke-dashoffset:0;stroke-opacity:1"><tspan
         x="234.05762"
         y="353.65234"
         id="tspan9"><tspan
           style="fill:#000000"
           id="tspan8">=</tspan></tspan></text><g
       inkscape:groupmode="layer"
       id="layer1"
       inkscape:label="Layer 2"
       transform="translate(1.2039272,1.3312824)"><text
         xml:space="preserve"
         transform="matrix(0.26458333,0,0,0.26458333,-32.082045,-23.348994)"
         id="text2"
         style="font-size:24px;line-height:normal;font-family:sans-serif;-inkscape-font-specification:sans-serif;text-align:center;text-decoration-color:#000000;white-space:pre;shape-inside:url(#rect2);display:inline;fill:#cc0000;fill-opacity:1;stroke:#cc0000;stroke-width:4.40315;stroke-dasharray:0, 48.4346;stroke-dashoffset:0;stroke-opacity:1"><tspan
           x="227.55762"
           y="353.65234"
           id="tspan10">1  2</tspan></text><text
         xml:space="preserve"
         transform="matrix(0.26458333,0,0,0.26458333,-43.017688,-15.533635)"
         id="text3"
         style="font-size:24px;line-height:normal;font-family:sans-serif;-inkscape-font-specification:sans-serif;text-align:center;text-decoration-color:#000000;white-space:pre;shape-inside:url(#rect3);display:inline;fill:#00b21c;fill-opacity:1;stroke:#00b21e;stroke-width:4.40315;stroke-dasharray:0, 48.4346;stroke-dashoffset:0;stroke-opacity:1"><tspan
           x="269.05566"
           y="353.65234"
           id="tspan11">3  4</tspan></text></g><g
       inkscape:groupmode="layer"
       id="layer2"
       inkscape:label="Layer 3"
       transform="translate(6.2252611,1.5638989)"
       style="display:inline"><text
         xml:space="preserve"
         transform="matrix(0.26458333,0,0,0.26458333,-16.927905,-23.861387)"
         id="text4"
         style="font-size:24px;line-height:normal;font-family:sans-serif;-inkscape-font-specification:sans-serif;text-align:center;text-decoration-color:#000000;white-space:pre;shape-inside:url(#rect4);display:inline;fill:#0000ff;fill-opacity:1;stroke:#cc0000;stroke-width:4.40315;stroke-dasharray:0, 48.4346;stroke-dashoffset:0;stroke-opacity:1"><tspan
           x="241.64453"
           y="353.65234"
           id="tspan12">5
</tspan><tspan
           x="241.64453"
           y="383.65234"
           id="tspan13">7</tspan></text><text
         xml:space="preserve"
         transform="matrix(0.26458333,0,0,0.26458333,-9.9119525,-23.655366)"
         id="text5"
         style="font-size:24px;line-height:normal;font-family:sans-serif;-inkscape-font-specification:sans-serif;text-align:center;text-decoration-color:#000000;white-space:pre;shape-inside:url(#rect5);display:inline;fill:#0000ff;fill-opacity:1;stroke:#cc0000;stroke-width:4.40315;stroke-dasharray:0, 48.4346;stroke-dashoffset:0;stroke-opacity:1"><tspan
           x="237.83008"
           y="353.65234"
           id="tspan15"><tspan
             style="fill:#aa00ff"
             id="tspan14"> 6
</tspan></tspan><tspan
           x="237.83008"
           y="383.65234"
           id="tspan17"><tspan
             style="fill:#aa00ff"
             id="tspan16"> 8</tspan></tspan></text></g><g
       inkscape:groupmode="layer"
       id="layer3"
       inkscape:label="Layer 4"
       transform="translate(3.7258858,1.8304636)"><text
         xml:space="preserve"
         transform="matrix(0.26458333,0,0,0.26458333,9.9922437,-23.833833)"
         id="text15"
         style="font-size:24px;line-height:normal;font-family:sans-serif;-inkscape-font-specification:sans-serif;text-align:center;text-decoration-color:#000000;white-space:pre;shape-inside:url(#rect16);display:inline;fill:#cc0000;fill-opacity:1;stroke:#cc0000;stroke-width:4.40315;stroke-dasharray:0, 48.4346;stroke-dashoffset:0;stroke-opacity:1"><tspan
           x="242.82129"
           y="353.65234"
           id="tspan18">1</tspan></text><text
         xml:space="preserve"
         transform="matrix(0.26458333,0,0,0.26458333,17.015858,-23.942166)"
         id="text16"
         style="font-size:24px;line-height:normal;font-family:sans-serif;-inkscape-font-specification:sans-serif;text-align:center;text-decoration-color:#000000;white-space:pre;shape-inside:url(#rect17);display:inline;fill:#0000ff;fill-opacity:1;stroke:#cc0000;stroke-width:4.40315;stroke-dasharray:0, 48.4346;stroke-dashoffset:0;stroke-opacity:1"><tspan
           x="241.64453"
           y="353.65234"
           id="tspan19">5
</tspan><tspan
           x="241.64453"
           y="383.65234"
           id="tspan20">5</tspan></text><text
         xml:space="preserve"
         transform="matrix(0.26458333,0,0,0.26458333,-0.78125353,-15.92299)"
         id="text21"
         style="font-size:24px;line-height:normal;font-family:sans-serif;-inkscape-font-specification:sans-serif;text-align:center;text-decoration-color:#000000;white-space:pre;shape-inside:url(#rect22);display:inline;fill:#00b21c;fill-opacity:1;stroke:#00b21e;stroke-width:4.40315;stroke-dasharray:0, 48.4346;stroke-dashoffset:0;stroke-opacity:1"><tspan
           x="284.31934"
           y="353.65234"
           id="tspan21">3</tspan></text></g><g
       inkscape:groupmode="layer"
       id="layer4"
       inkscape:label="Layer 5"
       style="display:inline"
       transform="translate(4.1360377,0.35125878)"><text
         xml:space="preserve"
         transform="matrix(0.26458333,0,0,0.26458333,27.082104,-22.345284)"
         id="text17"
         style="font-size:24px;line-height:normal;font-family:sans-serif;-inkscape-font-specification:sans-serif;text-align:center;text-decoration-color:#000000;white-space:pre;shape-inside:url(#rect18);display:inline;fill:#cc0000;fill-opacity:1;stroke:#cc0000;stroke-width:4.40315;stroke-dasharray:0, 48.4346;stroke-dashoffset:0;stroke-opacity:1"><tspan
           x="242.82129"
           y="353.65234"
           id="tspan22">2</tspan></text><text
         xml:space="preserve"
         transform="matrix(0.26458333,0,0,0.26458333,15.822646,-14.394522)"
         id="text22"
         style="font-size:24px;line-height:normal;font-family:sans-serif;-inkscape-font-specification:sans-serif;text-align:center;text-decoration-color:#000000;white-space:pre;shape-inside:url(#rect23);display:inline;fill:#00b21c;fill-opacity:1;stroke:#00b21e;stroke-width:4.40315;stroke-dasharray:0, 48.4346;stroke-dashoffset:0;stroke-opacity:1"><tspan
           x="284.31934"
           y="353.65234"
           id="tspan23">4</tspan></text><text
         xml:space="preserve"
         transform="matrix(0.26458333,0,0,0.26458333,34.635959,-22.190187)"
         id="text18"
         style="font-size:24px;line-height:normal;font-family:sans-serif;-inkscape-font-specification:sans-serif;text-align:center;text-decoration-color:#000000;white-space:pre;shape-inside:url(#rect19);display:inline;fill:#0000ff;fill-opacity:1;stroke:#cc0000;stroke-width:4.40315;stroke-dasharray:0, 48.4346;stroke-dashoffset:0;stroke-opacity:1"><tspan
           x="241.64453"
           y="353.65234"
           id="tspan24">7
</tspan><tspan
           x="241.64453"
           y="383.65234"
           id="tspan25">7</tspan></text></g><g
       inkscape:groupmode="layer"
       id="layer6"
       inkscape:label="Layer 6"
       transform="translate(5.6369985,0.05638743)"
       style="display:inline"><text
         xml:space="preserve"
         transform="matrix(0.26458333,0,0,0.26458333,44.898782,-22.464938)"
         id="text23"
         style="font-size:24px;line-height:normal;font-family:sans-serif;-inkscape-font-specification:sans-serif;text-align:center;text-decoration-color:#000000;white-space:pre;shape-inside:url(#rect24);display:inline;fill:#cc0000;fill-opacity:1;stroke:#cc0000;stroke-width:4.40315;stroke-dasharray:0, 48.4346;stroke-dashoffset:0;stroke-opacity:1"><tspan
           x="242.82129"
           y="353.65234"
           id="tspan26">1</tspan></text><text
         xml:space="preserve"
         transform="matrix(0.26458333,0,0,0.26458333,51.348361,-22.55399)"
         id="text41"
         style="font-size:24px;line-height:normal;font-family:sans-serif;-inkscape-font-specification:sans-serif;text-align:center;text-decoration-color:#000000;white-space:pre;shape-inside:url(#rect42);display:inline;fill:#0000ff;fill-opacity:1;stroke:#cc0000;stroke-width:4.40315;stroke-dasharray:0, 48.4346;stroke-dashoffset:0;stroke-opacity:1"><tspan
           x="241.64453"
           y="353.65234"
           id="tspan28"><tspan
             style="fill:#aa00ff"
             id="tspan27">6
</tspan></tspan><tspan
           x="241.64453"
           y="383.65234"
           id="tspan30"><tspan
             style="fill:#aa00ff"
             id="tspan29">6</tspan></tspan></text><text
         xml:space="preserve"
         transform="matrix(0.26458333,0,0,0.26458333,33.785182,-14.529285)"
         id="text25"
         style="font-size:24px;line-height:normal;font-family:sans-serif;-inkscape-font-specification:sans-serif;text-align:center;text-decoration-color:#000000;white-space:pre;shape-inside:url(#rect26);display:inline;fill:#00b21c;fill-opacity:1;stroke:#00b21e;stroke-width:4.40315;stroke-dasharray:0, 48.4346;stroke-dashoffset:0;stroke-opacity:1"><tspan
           x="284.31934"
           y="353.65234"
           id="tspan31">3</tspan></text></g><g
       inkscape:groupmode="layer"
       id="layer7"
       inkscape:label="Layer 7"
       transform="translate(11.702156,1.4787363)"
       style="display:inline"><text
         xml:space="preserve"
         transform="matrix(0.26458333,0,0,0.26458333,57.678277,-23.786622)"
         id="text24"
         style="font-size:24px;line-height:normal;font-family:sans-serif;-inkscape-font-specification:sans-serif;text-align:center;text-decoration-color:#000000;white-space:pre;shape-inside:url(#rect25);display:inline;fill:#cc0000;fill-opacity:1;stroke:#cc0000;stroke-width:4.40315;stroke-dasharray:0, 48.4346;stroke-dashoffset:0;stroke-opacity:1"><tspan
           x="242.82129"
           y="353.65234"
           id="tspan32">2</tspan></text><text
         xml:space="preserve"
         transform="matrix(0.26458333,0,0,0.26458333,46.191332,-15.861258)"
         id="text26"
         style="font-size:24px;line-height:normal;font-family:sans-serif;-inkscape-font-specification:sans-serif;text-align:center;text-decoration-color:#000000;white-space:pre;shape-inside:url(#rect41);display:inline;fill:#00b21c;fill-opacity:1;stroke:#00b21e;stroke-width:4.40315;stroke-dasharray:0, 48.4346;stroke-dashoffset:0;stroke-opacity:1"><tspan
           x="284.31934"
           y="353.65234"
           id="tspan33">4</tspan></text><text
         xml:space="preserve"
         transform="matrix(0.26458333,0,0,0.26458333,64.56227,-23.633911)"
         id="text42"
         style="font-size:24px;line-height:normal;font-family:sans-serif;-inkscape-font-specification:sans-serif;text-align:center;text-decoration-color:#000000;white-space:pre;shape-inside:url(#rect43);display:inline;fill:#0000ff;fill-opacity:1;stroke:#cc0000;stroke-width:4.40315;stroke-dasharray:0, 48.4346;stroke-dashoffset:0;stroke-opacity:1"><tspan
           x="241.64453"
           y="353.65234"
           id="tspan35"><tspan
             style="fill:#aa00ff"
             id="tspan34">8
</tspan></tspan><tspan
           x="241.64453"
           y="383.65234"
           id="tspan37"><tspan
             style="fill:#aa00ff"
             id="tspan36">8</tspan></tspan></text></g><text
       xml:space="preserve"
       transform="matrix(0.26458333,0,0,0.26458333,26.969578,-22.872832)"
       id="text43"
       style="font-size:24px;line-height:normal;font-family:sans-serif;-inkscape-font-specification:sans-serif;text-align:center;text-decoration-color:#000000;white-space:pre;shape-inside:url(#rect44);display:inline;fill:#0000ff;fill-opacity:1;stroke:#cc0000;stroke-width:4.40315;stroke-dasharray:0, 48.4346;stroke-dashoffset:0;stroke-opacity:1"><tspan
         x="234.05762"
         y="353.65234"
         id="tspan39"><tspan
           style="fill:#000000"
           id="tspan38">+</tspan></tspan></text><text
       xml:space="preserve"
       transform="matrix(0.26458333,0,0,0.26458333,27.136396,-14.177516)"
       id="text44"
       style="font-size:24px;line-height:normal;font-family:sans-serif;-inkscape-font-specification:sans-serif;text-align:center;text-decoration-color:#000000;white-space:pre;shape-inside:url(#rect45);display:inline;fill:#0000ff;fill-opacity:1;stroke:#cc0000;stroke-width:4.40315;stroke-dasharray:0, 48.4346;stroke-dashoffset:0;stroke-opacity:1"><tspan
         x="234.05762"
         y="353.65234"
         id="tspan41"><tspan
           style="fill:#000000"
           id="tspan40">+</tspan></tspan></text><text
       xml:space="preserve"
       transform="matrix(0.26458333,0,0,0.26458333,64.757813,-22.623614)"
       id="text45"
       style="font-size:24px;line-height:normal;font-family:sans-serif;-inkscape-font-specification:sans-serif;text-align:center;text-decoration-color:#000000;white-space:pre;shape-inside:url(#rect46);display:inline;fill:#0000ff;fill-opacity:1;stroke:#cc0000;stroke-width:4.40315;stroke-dasharray:0, 48.4346;stroke-dashoffset:0;stroke-opacity:1"><tspan
         x="234.05762"
         y="353.65234"
         id="tspan43"><tspan
           style="fill:#000000"
           id="tspan42">+</tspan></tspan></text><text
       xml:space="preserve"
       transform="matrix(0.26458333,0,0,0.26458333,64.491857,-14.792804)"
       id="text46"
       style="font-size:24px;line-height:normal;font-family:sans-serif;-inkscape-font-specification:sans-serif;text-align:center;text-decoration-color:#000000;white-space:pre;shape-inside:url(#rect47);display:inline;fill:#0000ff;fill-opacity:1;stroke:#cc0000;stroke-width:4.40315;stroke-dasharray:0, 48.4346;stroke-dashoffset:0;stroke-opacity:1"><tspan
         x="234.05762"
         y="353.65234"
         id="tspan45"><tspan
           style="fill:#000000"
           id="tspan44">+</tspan></tspan></text><path
       style="fill:#241c1c;fill-opacity:0;stroke:#000000;stroke-width:0.564999;stroke-opacity:1"
       d="m 30.437606,64.485879 c -1.120362,0 -2.240725,0 -3.361087,0 -0.182898,0 -0.6574,-0.0912 -0.802214,0 -0.02093,0.01318 0,0.946489 0,1.244097 0,1.118521 -0.07441,2.266937 0,3.383092 0.04578,0.686753 0.08903,1.273689 0.08903,1.958634 0,0.696148 0.04261,1.351383 0.08903,2.047661 0.05318,0.797671 -0.04987,1.605909 0,2.403779 0.0094,0.151027 0.07397,0.294576 0.08903,0.445145 0.06801,0.680136 0.0088,1.325658 0.08903,2.047661 0.03254,0.292873 -0.03654,0.597964 0,0.890289 0.08156,0.652475 0.08903,1.286824 0.08903,1.946412 0,0.06814 -0.05087,0.566706 0,0.602525 0.134287,0.09455 0.355806,0.0019 0.546214,0.04923 0.218472,0.05427 0.40169,0.122052 0.619916,0.176943 0.08,0.02013 0.296103,-0.05343 0.34616,0 0.02003,0.02138 -0.02072,0.06719 0,0.08791 0.04011,0.04011 0.333308,0 0.398732,0 0.196998,0 0.267094,0.0078 0.428397,0.08791 0.0041,0.0021 1.360239,0.01617 1.388851,0 0.03495,-0.01977 0.04429,-0.07506 0.08233,-0.0879 0.207576,-0.07007 0.47122,0.09615 0.63886,-0.07149"
       id="path47" /><path
       style="fill:#241c1c;fill-opacity:0;stroke:#000000;stroke-width:0.564999;stroke-opacity:1"
       d="m 40.000995,64.571254 c 1.120362,0 2.240725,0 3.361087,0 0.182898,0 0.6574,-0.0912 0.802214,0 0.02093,0.01318 0,0.946489 0,1.244097 0,1.118521 0.07441,2.266937 0,3.383092 -0.04578,0.686753 -0.08903,1.273689 -0.08903,1.958634 0,0.696148 -0.04261,1.351383 -0.08903,2.047661 -0.05318,0.797671 0.04987,1.605909 0,2.403779 -0.0094,0.151027 -0.07397,0.294576 -0.08903,0.445145 -0.06801,0.680136 -0.0088,1.325658 -0.08903,2.047661 -0.03254,0.292873 0.03654,0.597964 0,0.890289 -0.08156,0.652475 -0.08903,1.286824 -0.08903,1.946412 0,0.06814 0.05087,0.566706 0,0.602525 -0.134287,0.09455 -0.355806,0.0019 -0.546214,0.04923 -0.218472,0.05427 -0.40169,0.122052 -0.619916,0.176943 -0.08,0.02013 -0.296103,-0.05343 -0.34616,0 -0.02003,0.02138 0.02072,0.06719 0,0.08791 -0.04011,0.04011 -0.333308,0 -0.398732,0 -0.196998,0 -0.267094,0.0078 -0.428397,0.08791 -0.0041,0.0021 -1.360239,0.01617 -1.388851,0 -0.03495,-0.01977 -0.04429,-0.07506 -0.08233,-0.0879 -0.207576,-0.07007 -0.47122,0.09615 -0.63886,-0.07149"
       id="path48" /><path
       style="fill:#241c1c;fill-opacity:0;stroke:#000000;stroke-width:0.564999;stroke-opacity:1"
       d="m 54.465084,64.468236 c -1.120362,0 -2.240725,0 -3.361087,0 -0.182898,0 -0.6574,-0.0912 -0.802214,0 -0.02093,0.01318 0,0.946489 0,1.244097 0,1.118521 -0.07441,2.266937 0,3.383092 0.04578,0.686753 0.08903,1.273689 0.08903,1.958634 0,0.696148 0.04261,1.351383 0.08903,2.047661 0.05318,0.797671 -0.04987,1.605909 0,2.403779 0.0094,0.151027 0.07397,0.294576 0.08903,0.445145 0.06801,0.680136 0.0088,1.325658 0.08903,2.047661 0.03254,0.292873 -0.03654,0.597964 0,0.890289 0.08156,0.652475 0.08903,1.286824 0.08903,1.946412 0,0.06814 -0.05087,0.566706 0,0.602525 0.134287,0.09455 0.355806,0.0019 0.546214,0.04923 0.218472,0.05427 0.40169,0.122052 0.619916,0.176943 0.08,0.02013 0.296103,-0.05343 0.34616,0 0.02003,0.02138 -0.02072,0.06719 0,0.08791 0.04011,0.04011 0.333308,0 0.398732,0 0.196998,0 0.267094,0.0078 0.428397,0.08791 0.0041,0.0021 1.360239,0.01617 1.388851,0 0.03495,-0.01977 0.04429,-0.07506 0.08233,-0.0879 0.207576,-0.07007 0.47122,0.09615 0.63886,-0.07149"
       id="path49" /><path
       style="fill:#241c1c;fill-opacity:0;stroke:#000000;stroke-width:0.564999;stroke-opacity:1"
       d="m 63.816279,64.662903 c 1.120362,0 2.240725,0 3.361087,0 0.182898,0 0.6574,-0.0912 0.802214,0 0.02093,0.01318 0,0.946489 0,1.244097 0,1.118521 0.07441,2.266937 0,3.383092 -0.04578,0.686753 -0.08903,1.273689 -0.08903,1.958634 0,0.696148 -0.04261,1.351383 -0.08903,2.047661 -0.05318,0.797671 0.04987,1.605909 0,2.403779 -0.0094,0.151027 -0.07397,0.294576 -0.08903,0.445145 -0.06801,0.680136 -0.0088,1.325658 -0.08903,2.047661 -0.03254,0.292873 0.03654,0.597964 0,0.890289 -0.08156,0.652475 -0.08903,1.286824 -0.08903,1.946412 0,0.06814 0.05087,0.566706 0,0.602525 -0.134287,0.09455 -0.355806,0.0019 -0.546214,0.04923 -0.218472,0.05427 -0.40169,0.122052 -0.619916,0.176943 -0.08,0.02013 -0.296103,-0.05343 -0.34616,0 -0.02003,0.02138 0.02072,0.06719 0,0.08791 -0.04011,0.04011 -0.333308,0 -0.398732,0 -0.196998,0 -0.267094,0.0078 -0.428397,0.08791 -0.0041,0.0021 -1.360239,0.01617 -1.388851,0 -0.03495,-0.01977 -0.04429,-0.07506 -0.08233,-0.0879 -0.207576,-0.07007 -0.47122,0.09615 -0.63886,-0.07149"
       id="path50" /><path
       style="fill:#241c1c;fill-opacity:0;stroke:#000000;stroke-width:0.564999;stroke-opacity:1"
       d="m 80.017465,64.452351 c -1.120362,0 -2.240725,0 -3.361087,0 -0.182898,0 -0.6574,-0.0912 -0.802214,0 -0.02093,0.01318 0,0.946489 0,1.244097 0,1.118521 -0.07441,2.266937 0,3.383092 0.04578,0.686753 0.08903,1.273689 0.08903,1.958634 0,0.696148 0.04261,1.351383 0.08903,2.047661 0.05318,0.797671 -0.04987,1.605909 0,2.403779 0.0094,0.151027 0.07397,0.294576 0.08903,0.445145 0.06801,0.680136 0.0088,1.325658 0.08903,2.047661 0.03254,0.292873 -0.03654,0.597964 0,0.890289 0.08156,0.652475 0.08903,1.286824 0.08903,1.946412 0,0.06814 -0.05087,0.566706 0,0.602525 0.134287,0.09455 0.355806,0.0019 0.546214,0.04923 0.218472,0.05427 0.40169,0.122052 0.619916,0.176943 0.08,0.02013 0.296103,-0.05343 0.34616,0 0.02003,0.02138 -0.02072,0.06719 0,0.08791 0.04011,0.04011 0.333308,0 0.398732,0 0.196998,0 0.267094,0.0078 0.428397,0.08791 0.0041,0.0021 1.360239,0.01617 1.388851,0 0.03495,-0.01977 0.04429,-0.07506 0.08233,-0.0879 0.207576,-0.07007 0.47122,0.09615 0.63886,-0.07149"
       id="path51" /><path
       style="fill:#241c1c;fill-opacity:0;stroke:#000000;stroke-width:0.564999;stroke-opacity:1"
       d="m 141.867,64.505905 c 1.12036,0 2.24073,0 3.36109,0 0.1829,0 0.6574,-0.0912 0.80221,0 0.0209,0.01318 0,0.946489 0,1.244097 0,1.118521 0.0744,2.266937 0,3.383092 -0.0458,0.686753 -0.089,1.273689 -0.089,1.958634 0,0.696148 -0.0426,1.351383 -0.089,2.047661 -0.0532,0.797671 0.0499,1.605909 0,2.403779 -0.009,0.151027 -0.074,0.294576 -0.089,0.445145 -0.068,0.680136 -0.009,1.325658 -0.089,2.047661 -0.0325,0.292873 0.0365,0.597964 0,0.890289 -0.0816,0.652475 -0.089,1.286824 -0.089,1.946412 0,0.06814 0.0509,0.566706 0,0.602525 -0.13428,0.09455 -0.3558,0.0019 -0.54621,0.04923 -0.21847,0.05427 -0.40169,0.122052 -0.61992,0.176943 -0.08,0.02013 -0.2961,-0.05343 -0.34616,0 -0.02,0.02138 0.0207,0.06719 0,0.08791 -0.0401,0.04011 -0.3333,0 -0.39873,0 -0.197,0 -0.26709,0.0078 -0.4284,0.08791 -0.004,0.0021 -1.36023,0.01617 -1.38885,0 -0.0349,-0.01977 -0.0443,-0.07506 -0.0823,-0.0879 -0.20757,-0.07007 -0.47122,0.09615 -0.63886,-0.07149"
       id="path52" /><path
       style="fill:#241c1c;fill-opacity:0;stroke:#000000;stroke-width:0.564999;stroke-opacity:1"
       d="m 159.45538,64.937331 c -1.12036,0 -2.24072,0 -3.36109,0 -0.18289,0 -0.6574,-0.0912 -0.80221,0 -0.0209,0.01318 0,0.946489 0,1.244097 0,1.118521 -0.0744,2.266937 0,3.383092 0.0458,0.686753 0.089,1.273689 0.089,1.958634 0,0.696148 0.0426,1.351383 0.089,2.047661 0.0532,0.797671 -0.0499,1.605909 0,2.403779 0.009,0.151027 0.074,0.294576 0.089,0.445145 0.068,0.680136 0.009,1.325658 0.089,2.047661 0.0325,0.292873 -0.0365,0.597964 0,0.890289 0.0816,0.652475 0.089,1.286824 0.089,1.946412 0,0.06814 -0.0509,0.566706 0,0.602525 0.13429,0.09455 0.35581,0.0019 0.54621,0.04923 0.21848,0.05427 0.40169,0.122052 0.61992,0.176943 0.08,0.02013 0.2961,-0.05343 0.34616,0 0.02,0.02138 -0.0207,0.06719 0,0.08791 0.0401,0.04011 0.33331,0 0.39873,0 0.197,0 0.2671,0.0078 0.4284,0.08791 0.004,0.0021 1.36024,0.01617 1.38885,0 0.035,-0.01977 0.0443,-0.07506 0.0823,-0.0879 0.20758,-0.07007 0.47122,0.09615 0.63886,-0.07149"
       id="path53" /><path
       style="fill:#241c1c;fill-opacity:0;stroke:#000000;stroke-width:0.564999;stroke-opacity:1"
       d="m 176.54095,64.877556 c 1.12036,0 2.24073,0 3.36109,0 0.1829,0 0.6574,-0.0912 0.80221,0 0.0209,0.01318 0,0.946489 0,1.244097 0,1.118521 0.0744,2.266937 0,3.383092 -0.0458,0.686753 -0.089,1.273689 -0.089,1.958634 0,0.696148 -0.0426,1.351383 -0.089,2.047661 -0.0532,0.797671 0.0499,1.605909 0,2.403779 -0.009,0.151027 -0.074,0.294576 -0.089,0.445145 -0.068,0.680136 -0.009,1.325658 -0.089,2.047661 -0.0325,0.292873 0.0365,0.597964 0,0.890289 -0.0816,0.652475 -0.089,1.286824 -0.089,1.946412 0,0.06814 0.0509,0.566706 0,0.602525 -0.13428,0.09455 -0.3558,0.0019 -0.54621,0.04923 -0.21847,0.05427 -0.40169,0.122052 -0.61992,0.176943 -0.08,0.02013 -0.2961,-0.05343 -0.34616,0 -0.02,0.02138 0.0207,0.06719 0,0.08791 -0.0401,0.04011 -0.3333,0 -0.39873,0 -0.197,0 -0.26709,0.0078 -0.4284,0.08791 -0.004,0.0021 -1.36023,0.01617 -1.38885,0 -0.0349,-0.01977 -0.0443,-0.07506 -0.0823,-0.0879 -0.20757,-0.07007 -0.47122,0.09615 -0.63886,-0.07149"
       id="path54" /><rect
       style="fill:#241c1c;fill-opacity:0;stroke:#cc0000;stroke-width:0.165;stroke-dasharray:none;stroke-opacity:1"
       id="rect54"
       width="14.7047"
       height="6.9677978"
       x="27.768822"
       y="65.662987" /><rect
       style="fill:#241c1c;fill-opacity:0;stroke:#cc0000;stroke-width:0.167536;stroke-dasharray:none;stroke-opacity:1"
       id="rect55"
       width="6.9775066"
       height="15.139138"
       x="51.763454"
       y="65.432625" /><rect
       style="fill:#241c1c;fill-opacity:0;stroke:#cc0000;stroke-width:0.248773;stroke-dasharray:none;stroke-opacity:1"
       id="rect56"
       width="31.861368"
       height="7.310123"
       x="77.019409"
       y="65.446762" /><rect
       style="fill:#241c1c;fill-opacity:0;stroke:#cc0000;stroke-width:0.141489;stroke-dasharray:none;stroke-opacity:1"
       id="rect57"
       width="10.157281"
       height="7.4174066"
       x="156.92935"
       y="65.88459" /><rect
       style="fill:#241c1c;fill-opacity:0;stroke:#00b21e;stroke-width:0.165;stroke-dasharray:none;stroke-opacity:1"
       id="rect58"
       width="14.7047"
       height="6.9677978"
       x="27.657825"
       y="73.300369" /><rect
       style="fill:#241c1c;fill-opacity:0;stroke:#00b21e;stroke-width:0.239248;stroke-dasharray:none;stroke-opacity:1"
       id="rect59"
       width="31.249125"
       height="6.8935499"
       x="113.20893"
       y="73.807335" /><rect
       style="fill:#241c1c;fill-opacity:0;stroke:#00b21e;stroke-width:0.136933;stroke-dasharray:none;stroke-opacity:1"
       id="rect60"
       width="10.086854"
       height="6.9958653"
       x="168.44624"
       y="73.90097" /><rect
       style="fill:#241c1c;fill-opacity:0;stroke:#00b21e;stroke-width:0.156821;stroke-dasharray:none;stroke-opacity:1"
       id="rect61"
       width="6.1299672"
       height="15.098397"
       x="60.277191"
       y="65.469681" /><ellipse
       style="fill:#000000;fill-opacity:1;stroke:#000000;stroke-width:0.11898;stroke-dasharray:none;stroke-opacity:1"
       id="path61"
       cx="47.213005"
       cy="73.511948"
       rx="0.44895875"
       ry="0.44235402" /><ellipse
       style="fill:#000000;fill-opacity:1;stroke:#000000;stroke-width:0.11898;stroke-dasharray:none;stroke-opacity:1"
       id="ellipse61"
       cx="83.052361"
       cy="69.455719"
       rx="0.44895875"
       ry="0.44235402" /><ellipse
       style="fill:#000000;fill-opacity:1;stroke:#000000;stroke-width:0.11898;stroke-dasharray:none;stroke-opacity:1"
       id="ellipse62"
       cx="101.32959"
       cy="69.451927"
       rx="0.44895875"
       ry="0.44235402" /><ellipse
       style="fill:#000000;fill-opacity:1;stroke:#000000;stroke-width:0.11898;stroke-dasharray:none;stroke-opacity:1"
       id="ellipse63"
       cx="119.6432"
       cy="69.008041"
       rx="0.44895875"
       ry="0.44235402" /><ellipse
       style="fill:#000000;fill-opacity:1;stroke:#000000;stroke-width:0.11898;stroke-dasharray:none;stroke-opacity:1"
       id="ellipse64"
       cx="138.87398"
       cy="69.159119"
       rx="0.44895875"
       ry="0.44235402" /><ellipse
       style="fill:#000000;fill-opacity:1;stroke:#000000;stroke-width:0.11898;stroke-dasharray:none;stroke-opacity:1"
       id="ellipse65"
       cx="83.380417"
       cy="77.283463"
       rx="0.44895875"
       ry="0.44235402" /><ellipse
       style="fill:#000000;fill-opacity:1;stroke:#000000;stroke-width:0.11898;stroke-dasharray:none;stroke-opacity:1"
       id="ellipse66"
       cx="101.09851"
       cy="77.467789"
       rx="0.44895875"
       ry="0.44235402" /><ellipse
       style="fill:#000000;fill-opacity:1;stroke:#000000;stroke-width:0.11898;stroke-dasharray:none;stroke-opacity:1"
       id="ellipse67"
       cx="119.786"
       cy="77.068855"
       rx="0.44895875"
       ry="0.44235402" /><ellipse
       style="fill:#000000;fill-opacity:1;stroke:#000000;stroke-width:0.11898;stroke-dasharray:none;stroke-opacity:1"
       id="ellipse68"
       cx="138.67644"
       cy="77.238342"
       rx="0.44895875"
       ry="0.44235402" /></g></svg>
